<svg xmlns="http://www.w3.org/2000/svg" width="1387" height="756" viewBox="0 0 1387 756">
<g>
<path d="M 687.68 588.95 C661.32,592.48 637.66,584.82 618.11,566.42 C608.88,557.74 601.38,547.71 589.91,528.72 C582.45,516.38 580.99,514.53 578.91,514.69 C548.67,517.10 545.02,517.22 534.77,516.11 C507.50,513.15 487.19,504.30 472.31,488.88 C467.06,483.43 462.53,478.00 463.25,478.00 C463.46,478.00 466.08,479.84 469.07,482.08 C476.53,487.68 490.81,494.43 501.00,497.18 C508.26,499.13 511.97,499.47 526.50,499.48 C537.26,499.49 545.52,499.01 549.00,498.17 C552.03,497.44 557.55,496.14 561.28,495.28 C565.01,494.42 568.28,493.36 568.55,492.92 C568.82,492.48 566.86,488.39 564.19,483.81 C561.53,479.24 556.17,469.65 552.28,462.50 C541.47,442.61 528.23,418.15 519.00,401.00 C506.70,378.16 503.70,373.13 496.89,363.88 C484.47,347.00 465.93,331.56 450.39,325.17 C437.28,319.77 430.00,318.49 412.97,318.60 C403.08,318.66 396.63,319.13 395.22,319.88 C394.00,320.54 393.01,320.72 393.01,320.29 C393.04,319.18 403.25,315.38 412.60,313.00 C423.04,310.35 441.97,309.39 453.49,310.93 C485.04,315.16 511.60,333.62 535.83,368.15 C541.37,376.04 546.75,383.62 547.80,385.00 C548.84,386.38 550.83,389.56 552.23,392.08 C553.63,394.60 555.25,397.52 555.84,398.58 C556.42,399.64 559.63,405.13 562.95,410.79 C566.28,416.44 569.00,421.24 569.00,421.45 C569.00,421.65 570.73,424.90 572.85,428.66 C574.96,432.42 579.53,440.90 582.98,447.50 C599.05,478.17 599.90,479.40 604.35,478.43 C606.08,478.06 614.25,474.60 622.50,470.76 C645.77,459.92 666.06,447.81 691.28,429.73 C697.24,425.45 702.61,422.26 703.22,422.63 C703.85,423.02 704.03,422.85 703.64,422.23 C702.95,421.11 711.60,414.30 713.14,414.75 C713.61,414.89 714.00,414.34 714.00,413.54 C714.00,412.73 714.92,411.58 716.04,410.98 C717.16,410.38 719.52,408.43 721.29,406.65 C723.05,404.87 723.49,404.58 722.25,406.01 C719.79,408.85 719.19,410.91 721.34,409.13 C722.38,408.27 722.94,408.56 723.80,410.45 C725.09,413.29 729.47,416.45 730.88,415.57 C731.42,415.24 732.14,415.86 732.48,416.94 C733.33,419.62 738.70,424.00 741.13,424.00 C742.22,424.00 744.76,422.88 746.79,421.50 C748.81,420.12 750.88,419.00 751.38,419.00 C752.67,419.00 761.64,412.98 774.69,403.36 C786.99,394.28 805.80,378.03 817.78,366.11 C822.03,361.89 827.47,356.91 829.88,355.03 C834.07,351.78 834.32,351.71 835.63,353.51 C837.42,355.95 837.37,357.92 835.51,358.64 C834.68,358.95 834.28,359.64 834.61,360.17 C834.93,360.70 835.74,360.93 836.39,360.68 C837.05,360.43 838.44,360.85 839.48,361.61 C840.53,362.38 841.06,363.00 840.67,363.00 C840.28,363.00 840.73,364.19 841.68,365.63 C842.63,367.08 843.31,369.49 843.20,370.98 C843.08,372.54 843.76,374.38 844.82,375.33 C846.53,376.88 846.81,376.81 849.40,374.10 C851.41,372.01 851.82,371.01 850.93,370.46 C850.13,369.96 849.95,370.10 850.40,370.85 C850.80,371.48 850.75,372.00 850.30,372.00 C849.85,372.00 848.89,371.05 848.17,369.90 C847.44,368.74 847.34,368.09 847.93,368.45 C848.52,368.82 849.00,368.64 849.00,368.06 C849.00,366.19 850.84,366.93 851.52,369.07 C851.95,370.43 852.72,370.94 853.75,370.54 C856.01,369.68 848.84,377.29 839.00,386.20 C799.15,422.29 726.05,464.57 655.25,492.46 C647.65,495.46 646.38,497.24 649.57,500.43 C650.44,501.29 650.65,502.00 650.04,502.00 C649.43,502.00 648.70,501.37 648.40,500.61 C647.40,498.00 641.00,501.89 641.00,505.12 C641.00,506.00 643.78,507.09 647.50,507.65 C649.15,507.90 651.47,509.18 652.65,510.49 C653.83,511.80 655.16,512.56 655.61,512.19 C656.07,511.81 655.93,512.17 655.32,513.00 C653.33,515.67 654.82,522.00 657.44,522.00 C658.16,522.00 659.31,522.67 659.99,523.49 C660.67,524.31 661.58,524.76 662.00,524.50 C662.43,524.23 663.58,525.25 664.57,526.76 C671.56,537.50 687.20,551.04 697.50,555.27 C708.47,559.78 721.21,560.16 740.80,556.59 C743.87,556.02 746.21,553.98 745.60,552.39 C745.29,551.58 745.64,551.31 746.55,551.66 C747.66,552.08 747.07,553.33 744.09,556.86 C728.56,575.25 709.63,586.02 687.68,588.95 ZM 740.47 388.51 C735.33,393.73 730.79,398.00 730.38,398.00 C729.96,398.00 730.77,396.76 732.16,395.25 C739.62,387.17 749.54,370.16 752.45,360.49 C757.97,342.15 753.15,325.18 739.44,314.74 C731.30,308.53 716.33,301.45 702.00,297.03 C669.11,286.88 662.76,284.62 652.45,279.41 C639.20,272.70 629.90,265.85 618.20,254.15 C609.73,245.68 596.50,229.17 597.44,228.23 C597.68,227.98 599.15,228.65 600.69,229.70 C608.38,234.96 630.98,245.09 645.91,249.97 C658.31,254.02 676.27,258.46 692.13,261.38 C714.36,265.48 733.71,271.04 732.52,272.97 C731.84,274.06 734.89,275.19 736.24,274.35 C736.92,273.93 737.01,274.17 736.49,275.02 C735.90,275.97 736.12,276.17 737.29,275.72 C738.39,275.30 738.73,275.54 738.37,276.47 C738.08,277.23 738.75,278.33 739.86,278.92 C742.76,280.48 743.44,280.25 741.89,278.25 C740.62,276.61 740.66,276.60 742.52,278.12 C746.78,281.61 748.89,282.19 751.24,280.54 C752.56,279.62 752.89,279.00 752.06,279.00 C750.30,279.00 751.54,277.68 753.58,277.38 C754.42,277.26 755.52,278.24 756.03,279.57 C756.53,280.89 758.74,283.22 760.94,284.74 C763.14,286.26 765.20,288.27 765.52,289.21 C767.39,294.65 779.80,304.97 784.50,305.00 C786.35,305.01 786.08,313.47 784.02,319.43 C782.91,322.66 782.00,326.41 782.00,327.76 C782.00,331.81 775.60,345.27 768.97,355.17 C762.15,365.35 754.84,373.90 740.47,388.51 ZM 726.51 544.91 C719.09,546.28 716.79,546.22 710.10,544.42 C704.51,542.91 695.72,538.57 693.95,536.44 C693.22,535.56 698.40,527.08 712.61,505.86 C723.43,489.71 733.00,475.66 733.89,474.64 C735.88,472.34 748.53,465.87 749.38,466.71 C749.72,467.05 750.00,466.78 750.00,466.11 C750.00,465.43 750.45,465.16 751.00,465.50 C751.55,465.84 752.00,465.61 752.00,464.99 C752.00,462.89 758.03,468.14 759.96,471.92 C761.01,473.98 763.48,476.89 765.45,478.40 C767.42,479.90 768.80,481.51 768.51,481.98 C768.22,482.45 768.41,482.98 768.92,483.16 C769.43,483.35 770.00,484.14 770.17,484.92 C770.52,486.40 773.61,490.00 774.54,490.00 C774.84,490.00 775.99,490.84 777.09,491.87 C778.57,493.25 778.93,494.44 778.44,496.37 C778.08,497.81 777.39,498.74 776.90,498.44 C776.42,498.14 776.28,498.56 776.59,499.37 C777.27,501.15 762.63,523.20 757.86,527.58 C748.24,536.39 735.98,543.16 726.51,544.91 ZM 692.75 246.88 C692.89,247.50 692.89,247.95 692.75,247.88 C692.61,247.82 691.60,247.56 690.50,247.31 C683.28,245.67 652.64,236.23 643.50,232.83 C602.95,217.75 575.47,194.53 560.50,162.71 C556.63,154.46 553.59,146.00 554.50,146.00 C554.69,146.00 558.59,148.82 563.17,152.27 C567.75,155.71 576.10,161.13 581.71,164.30 C587.33,167.47 592.19,170.51 592.52,171.04 C592.85,171.57 593.72,172.00 594.46,172.00 C596.89,172.00 606.50,179.16 606.53,180.99 C606.55,181.97 607.17,183.50 607.91,184.39 C608.65,185.28 609.55,187.45 609.91,189.21 C610.49,192.05 611.85,193.13 621.92,198.76 C631.09,203.88 637.71,206.55 656.39,212.62 C669.10,216.76 680.69,220.78 682.15,221.57 C683.61,222.36 685.98,223.00 687.40,223.00 C689.01,223.00 690.00,223.56 690.00,224.45 C690.00,226.67 692.19,231.00 693.05,230.47 C693.47,230.21 694.83,232.48 696.09,235.50 C697.34,238.53 698.74,241.00 699.18,241.00 C701.39,241.00 699.07,243.64 696.00,244.63 C694.08,245.25 692.61,246.26 692.75,246.88 ZM 727.75 260.75 C727.89,261.44 727.89,261.96 727.75,261.91 C722.90,260.24 711.07,253.70 711.53,252.95 C712.55,251.30 709.99,249.00 707.13,248.98 C702.96,248.96 701.51,247.63 703.50,245.65 C705.49,243.65 709.93,243.53 714.28,245.35 C717.89,246.85 721.09,250.00 719.01,250.00 C718.33,250.00 718.83,250.85 720.11,251.89 C721.39,252.92 722.97,253.57 723.62,253.32 C725.76,252.50 726.23,255.08 724.35,257.30 C723.33,258.49 723.17,258.95 724.00,258.32 C725.66,257.06 731.00,257.70 731.00,259.16 C731.00,259.67 730.21,259.96 729.25,259.79 C728.27,259.63 727.61,260.05 727.75,260.75 ZM 731.17 426.33 C730.90,427.75 731.35,428.09 733.16,427.83 C734.45,427.65 735.50,426.83 735.50,426.00 C735.50,423.83 731.60,424.13 731.17,426.33 ZM 654.67 509.54 L 654.67 509.64 C654.67,510.41 654.67,510.82 654.52,510.88 C654.35,510.96 654.01,510.61 653.28,509.88 L 653.20 509.80 C651.60,508.20 651.67,506.94 653.33,507.57 C654.07,507.86 654.67,508.74 654.67,509.54 ZM 725.50 259.00 C725.16,259.55 725.36,260.00 725.94,260.00 C726.52,260.00 727.00,259.55 727.00,259.00 C727.00,258.45 726.80,258.00 726.56,258.00 C726.32,258.00 725.84,258.45 725.50,259.00 Z" fill="rgb(4,104,211)"/>
<path d="M 835.28 336.72 C830.83,341.87 826.69,341.88 824.73,336.73 C824.35,335.76 822.87,334.52 821.42,333.97 C819.57,333.27 818.98,332.49 819.42,331.34 C820.10,329.57 817.46,326.00 815.47,326.00 C814.80,326.00 813.71,325.35 813.05,324.56 C812.40,323.77 810.53,322.84 808.91,322.48 C804.35,321.48 800.00,317.32 800.00,313.97 C800.00,312.40 799.55,310.84 799.00,310.50 C798.45,310.16 798.00,310.78 798.00,311.88 C798.00,312.98 797.50,314.19 796.89,314.57 C796.18,315.01 795.97,314.58 796.31,313.38 C796.59,312.34 797.11,309.84 797.45,307.80 C797.99,304.56 797.84,304.15 796.20,304.46 C795.17,304.66 794.30,304.30 794.25,303.66 C792.81,283.92 788.96,270.76 781.10,258.79 C773.49,247.21 763.60,238.85 748.50,231.25 C742.50,228.23 725.00,221.69 725.00,222.47 C725.00,222.70 721.96,221.83 718.25,220.55 C708.88,217.30 707.95,216.88 708.43,216.11 C708.67,215.73 706.87,214.16 704.43,212.62 C701.99,211.08 700.00,209.41 700.00,208.91 C700.00,208.41 699.33,208.00 698.50,208.00 C697.67,208.00 697.00,207.52 697.00,206.94 C697.00,206.36 697.50,206.19 698.12,206.57 C698.89,207.05 699.11,206.00 698.84,203.13 L 698.45 199.00 L 702.28 199.00 C704.39,199.00 708.00,198.57 710.31,198.04 C715.46,196.85 736.77,196.14 734.29,197.24 C733.22,197.71 734.40,197.87 737.25,197.64 C740.02,197.41 742.00,197.66 742.00,198.25 C742.00,198.83 743.26,199.00 744.96,198.66 C746.59,198.33 748.20,198.52 748.55,199.07 C748.89,199.63 750.03,199.81 751.08,199.47 C752.24,199.11 753.00,199.34 753.00,200.05 C753.00,200.74 753.83,201.02 755.00,200.71 C756.10,200.42 757.00,200.51 757.00,200.90 C757.00,201.68 766.24,204.41 769.50,204.60 C772.10,204.74 782.28,209.08 783.23,210.45 C783.64,211.03 783.98,211.15 783.98,210.73 C784.01,209.55 792.00,213.89 792.00,215.08 C792.00,215.65 792.38,215.88 792.85,215.59 C794.85,214.36 813.00,231.78 813.00,234.93 C813.00,235.52 813.36,236.00 813.79,236.00 C814.64,236.00 819.27,244.85 820.59,249.00 C821.03,250.38 821.43,253.98 821.48,257.00 C821.71,271.21 822.04,275.09 823.00,274.50 C823.55,274.16 824.00,274.66 824.00,275.62 C824.00,276.92 824.76,276.51 826.97,274.03 C828.60,272.21 829.70,270.32 829.41,269.85 C829.12,269.38 829.39,269.00 830.00,269.00 C830.61,269.00 830.84,268.55 830.50,268.00 C830.16,267.45 830.39,267.00 831.00,267.00 C831.61,267.00 831.84,266.55 831.50,266.00 C831.16,265.45 831.43,265.00 832.11,265.00 C832.78,265.00 833.05,264.71 832.69,264.36 C831.92,263.59 835.07,258.00 836.27,258.00 C836.74,258.00 836.87,257.60 836.56,257.10 C836.26,256.61 836.71,255.94 837.57,255.61 C838.43,255.28 838.86,254.58 838.53,254.04 C838.20,253.51 838.81,252.19 839.88,251.12 C840.95,250.05 841.58,248.91 841.27,248.61 C840.97,248.30 841.45,247.76 842.35,247.42 C843.25,247.07 843.74,246.38 843.43,245.88 C843.12,245.39 844.19,243.65 845.81,242.03 C847.43,240.41 848.52,238.86 848.24,238.57 C847.95,238.28 848.45,237.76 849.36,237.42 C850.26,237.07 851.00,236.32 851.00,235.75 C851.00,233.97 862.07,220.83 870.70,212.39 L 878.98 204.27 L 873.47 203.63 C866.82,202.84 859.06,200.01 854.02,196.51 C851.03,194.44 850.38,193.44 850.76,191.46 C851.18,189.27 851.74,189.00 855.80,189.00 C858.30,189.00 861.74,188.58 863.43,188.08 C869.80,186.16 881.20,184.01 882.08,184.55 C882.59,184.86 883.00,184.67 883.00,184.13 C883.00,183.58 884.01,182.84 885.25,182.47 C886.49,182.10 893.86,179.13 901.63,175.86 C909.41,172.59 917.06,169.82 918.63,169.70 C920.21,169.59 921.82,169.05 922.21,168.50 C922.61,167.95 927.11,167.50 932.21,167.51 C942.48,167.51 948.91,169.63 954.30,174.79 C956.93,177.31 957.66,177.47 966.80,177.51 C975.67,177.54 977.05,177.82 983.00,180.76 C986.58,182.53 990.87,185.22 992.54,186.74 C994.21,188.26 995.00,189.11 994.29,188.63 C993.42,188.04 993.00,188.25 993.00,189.29 C993.00,191.01 990.30,191.56 976.94,192.53 C967.00,193.25 964.54,194.21 967.35,196.26 C969.01,197.48 969.03,197.73 967.60,198.92 C966.72,199.64 965.11,200.00 964.01,199.71 C962.90,199.42 962.00,199.65 962.00,200.22 C962.00,200.83 961.39,200.74 960.50,200.00 C959.47,199.15 958.60,199.07 957.75,199.76 C956.56,200.72 954.16,201.35 947.61,202.44 C946.03,202.70 943.10,203.98 941.11,205.29 C939.13,206.59 935.63,208.84 933.34,210.28 C929.12,212.95 925.25,216.44 922.83,219.76 C922.10,220.76 919.47,223.03 917.00,224.80 C914.53,226.56 910.47,230.53 908.00,233.61 C905.53,236.70 901.21,241.98 898.41,245.36 C892.49,252.50 878.97,272.35 870.73,286.00 C860.25,303.35 852.89,314.44 848.15,320.00 C845.58,323.02 842.26,327.30 840.77,329.50 C839.28,331.70 836.82,334.95 835.28,336.72 ZM 557.23 401.00 C556.53,399.80 556.03,398.94 555.84,398.58 C555.25,397.52 553.63,394.60 552.23,392.08 C550.83,389.56 548.84,386.38 547.80,385.00 C546.75,383.62 541.37,376.04 535.83,368.15 C511.60,333.62 485.04,315.16 453.49,310.93 C441.97,309.39 423.04,310.35 412.60,313.00 C408.56,314.03 404.37,315.32 400.90,316.55 C402.43,315.81 402.64,315.27 402.03,314.54 C401.17,313.50 401.97,312.63 405.71,310.53 C423.40,300.64 440.31,296.06 462.00,295.30 C484.00,294.53 497.79,297.48 516.31,306.90 C543.62,320.81 565.35,344.62 589.79,387.40 C590.08,387.90 589.79,387.99 589.15,387.60 C587.29,386.44 587.82,388.27 590.50,392.21 C591.88,394.24 593.00,396.38 593.00,396.97 C593.00,397.56 594.04,399.72 595.31,401.77 C596.57,403.82 598.33,407.78 599.21,410.56 C600.09,413.34 601.97,417.34 603.40,419.45 C605.65,422.77 606.57,425.39 605.77,426.25 C605.64,426.39 606.32,427.61 607.27,428.97 C609.70,432.45 609.58,437.00 607.06,437.00 C605.99,437.00 604.81,436.50 604.44,435.90 C604.05,435.27 602.52,435.05 600.88,435.37 C599.30,435.69 598.00,435.53 598.00,435.01 C598.00,434.49 597.25,434.35 596.34,434.70 C595.27,435.11 594.92,434.95 595.35,434.25 C595.75,433.60 594.52,432.67 592.26,431.93 C590.19,431.25 587.95,429.91 587.27,428.96 C586.60,428.01 584.91,426.94 583.52,426.60 C582.14,426.25 581.00,425.32 581.00,424.53 C581.00,423.52 580.11,423.21 578.00,423.47 C575.33,423.81 574.39,423.09 569.17,416.68 C565.95,412.73 562.07,407.59 560.53,405.25 C558.99,402.91 557.52,401.00 557.25,401.00 C557.24,401.00 557.24,401.00 557.23,401.00 ZM 812.12 439.75 C811.98,441.25 810.37,441.40 809.50,440.00 C809.16,439.45 808.01,439.00 806.94,439.00 C805.87,439.00 805.00,438.33 805.00,437.50 C805.00,436.01 806.15,435.57 808.95,435.97 C809.74,436.09 810.96,435.41 811.65,434.46 C812.50,433.30 813.48,433.00 814.70,433.53 C816.40,434.27 816.41,434.33 814.74,434.73 C813.77,434.96 813.23,435.57 813.55,436.08 C813.86,436.58 813.64,437.00 813.06,437.00 C812.48,437.00 812.05,437.34 812.12,437.75 C812.18,438.16 812.18,439.06 812.12,439.75 ZM 827.52 421.25 C824.90,424.22 824.40,424.46 823.58,423.13 C822.90,422.02 827.16,417.00 828.78,417.00 C830.58,417.00 830.23,418.17 827.52,421.25 ZM 393.24 319.94 C393.09,320.07 393.02,320.19 393.01,320.29 C393.01,320.34 393.03,320.39 393.06,320.42 C393.02,320.39 393.00,320.33 393.00,320.27 C393.00,320.19 393.08,320.07 393.24,319.94 Z" fill="rgb(8,196,211)"/>
<path d="M 740.47 388.51 C754.84,373.90 762.15,365.35 768.97,355.17 C775.60,345.27 782.00,331.81 782.00,327.76 C782.00,326.41 782.91,322.66 784.02,319.43 C786.08,313.47 786.35,305.01 784.50,305.00 C779.80,304.97 767.39,294.65 765.52,289.21 C765.20,288.27 763.14,286.26 760.94,284.74 C758.74,283.22 756.53,280.89 756.03,279.57 C755.52,278.24 754.42,277.26 753.58,277.38 C751.54,277.68 750.30,279.00 752.06,279.00 C752.89,279.00 752.56,279.62 751.24,280.54 C748.89,282.19 746.78,281.61 742.52,278.12 C740.66,276.60 740.62,276.61 741.89,278.25 C743.44,280.25 742.76,280.48 739.86,278.92 C738.75,278.33 738.08,277.23 738.37,276.47 C738.73,275.54 738.39,275.30 737.29,275.72 C736.12,276.17 735.90,275.97 736.49,275.02 C737.01,274.17 736.92,273.93 736.24,274.35 C734.89,275.19 731.84,274.06 732.52,272.97 C732.79,272.53 731.99,271.90 730.33,271.14 C733.93,272.53 737.08,273.99 739.87,275.55 C742.31,276.92 744.46,277.87 744.66,277.68 C744.85,277.48 742.19,274.63 738.75,271.34 C726.98,260.08 716.37,255.29 678.00,243.89 C667.35,240.73 654.94,236.80 647.52,234.25 C659.49,238.33 684.13,245.86 690.50,247.31 C691.60,247.56 692.61,247.82 692.75,247.88 C692.89,247.95 692.89,247.50 692.75,246.88 C692.61,246.26 694.08,245.25 696.00,244.63 C699.07,243.64 701.39,241.00 699.18,241.00 C698.74,241.00 697.34,238.53 696.09,235.50 C694.83,232.48 693.47,230.21 693.05,230.47 C692.19,231.00 690.00,226.67 690.00,224.45 C690.00,223.56 689.01,223.00 687.40,223.00 C685.98,223.00 683.61,222.36 682.15,221.57 C680.69,220.78 669.10,216.76 656.39,212.62 C637.71,206.55 631.09,203.88 621.92,198.76 C611.85,193.13 610.49,192.05 609.91,189.21 C609.55,187.45 608.65,185.28 607.91,184.39 C607.17,183.50 606.55,181.97 606.53,180.99 C606.50,179.16 596.89,172.00 594.46,172.00 C593.72,172.00 592.85,171.57 592.52,171.04 C592.26,170.62 589.20,168.65 585.17,166.29 C587.12,167.35 588.51,168.00 588.95,168.00 C589.39,168.00 592.24,169.10 595.29,170.45 C617.10,180.09 650.58,187.47 693.00,191.98 C703.72,193.12 719.02,194.75 726.99,195.60 C732.77,196.22 737.94,197.01 740.48,197.62 C739.65,197.53 738.54,197.53 737.25,197.64 C734.40,197.87 733.22,197.71 734.29,197.24 C736.77,196.14 715.46,196.85 710.31,198.04 C708.00,198.57 704.39,199.00 702.28,199.00 L 698.45 199.00 L 698.84 203.13 C699.11,206.00 698.89,207.05 698.12,206.57 C697.50,206.19 697.00,206.36 697.00,206.94 C697.00,207.52 697.67,208.00 698.50,208.00 C699.33,208.00 700.00,208.41 700.00,208.91 C700.00,209.41 701.99,211.08 704.43,212.62 C706.87,214.16 708.67,215.73 708.43,216.11 C707.95,216.88 708.88,217.30 718.25,220.55 C721.96,221.83 725.00,222.70 725.00,222.47 C725.00,221.69 742.50,228.23 748.50,231.25 C763.60,238.85 773.49,247.21 781.10,258.79 C788.96,270.76 792.81,283.92 794.25,303.66 C794.30,304.30 795.17,304.66 796.20,304.46 C797.84,304.15 797.99,304.56 797.45,307.80 C797.11,309.84 796.59,312.34 796.31,313.38 C795.97,314.58 796.18,315.01 796.89,314.57 C797.50,314.19 798.00,312.98 798.00,311.88 C798.00,310.78 798.45,310.16 799.00,310.50 C799.55,310.84 800.00,312.40 800.00,313.97 C800.00,317.32 804.35,321.48 808.91,322.48 C810.53,322.84 812.40,323.77 813.05,324.56 C813.71,325.35 814.80,326.00 815.47,326.00 C817.46,326.00 820.10,329.57 819.42,331.34 C818.98,332.49 819.57,333.27 821.42,333.97 C822.87,334.52 824.35,335.76 824.73,336.73 C826.69,341.88 830.83,341.87 835.28,336.72 C836.82,334.95 839.28,331.70 840.77,329.50 C842.26,327.30 845.58,323.02 848.15,320.00 C852.89,314.44 860.25,303.35 870.73,286.00 C878.97,272.35 892.49,252.50 898.41,245.36 C901.21,241.98 905.53,236.70 908.00,233.61 C910.47,230.53 914.53,226.56 917.00,224.80 C919.47,223.03 922.10,220.76 922.83,219.76 C925.25,216.44 929.12,212.95 933.34,210.28 C935.63,208.84 939.13,206.59 941.11,205.29 C943.10,203.98 946.03,202.70 947.61,202.44 C954.16,201.35 956.56,200.72 957.75,199.76 C958.60,199.07 959.47,199.15 960.50,200.00 C961.39,200.74 962.00,200.83 962.00,200.22 C962.00,199.65 962.90,199.42 964.01,199.71 C965.11,200.00 966.72,199.64 967.60,198.92 C969.03,197.73 969.01,197.48 967.35,196.26 C964.54,194.21 967.00,193.25 976.94,192.53 C990.30,191.56 993.00,191.01 993.00,189.29 C993.00,188.25 993.42,188.04 994.29,188.63 C994.74,188.93 994.59,188.70 993.99,188.10 C994.02,188.14 994.05,188.17 994.09,188.20 L 998.44 192.43 L 992.97 193.54 C975.22,197.13 964.18,203.44 951.59,217.16 C942.14,227.46 935.99,237.81 917.19,275.00 C898.91,311.17 893.36,321.33 884.71,334.50 C865.31,364.01 835.40,392.80 798.18,417.77 C796.38,418.98 794.56,420.19 792.73,421.39 C810.70,409.47 826.49,397.53 839.00,386.20 C848.84,377.29 856.01,369.68 853.75,370.54 C852.72,370.94 851.95,370.43 851.52,369.07 C850.84,366.93 849.00,366.19 849.00,368.06 C849.00,368.64 848.52,368.82 847.93,368.45 C847.34,368.09 847.44,368.74 848.17,369.90 C848.89,371.05 849.85,372.00 850.30,372.00 C850.75,372.00 850.80,371.48 850.40,370.85 C849.95,370.10 850.13,369.96 850.93,370.46 C851.82,371.01 851.41,372.01 849.40,374.10 C846.81,376.81 846.53,376.88 844.82,375.33 C843.76,374.38 843.08,372.54 843.20,370.98 C843.31,369.49 842.63,367.08 841.68,365.63 C840.73,364.19 840.28,363.00 840.67,363.00 C841.06,363.00 840.53,362.38 839.48,361.61 C838.44,360.85 837.05,360.43 836.39,360.68 C835.74,360.93 834.93,360.70 834.61,360.17 C834.28,359.64 834.68,358.95 835.51,358.64 C837.37,357.92 837.42,355.95 835.63,353.51 C834.32,351.71 834.07,351.78 829.88,355.03 C827.47,356.91 822.03,361.89 817.78,366.11 C805.80,378.03 786.99,394.28 774.69,403.36 C761.64,412.98 752.67,419.00 751.38,419.00 C750.88,419.00 748.81,420.12 746.79,421.50 C744.76,422.88 742.22,424.00 741.13,424.00 C738.70,424.00 733.33,419.62 732.48,416.94 C732.14,415.86 731.42,415.24 730.88,415.57 C729.47,416.45 725.09,413.29 723.80,410.45 C722.94,408.56 722.38,408.27 721.34,409.13 C719.19,410.91 719.79,408.85 722.25,406.01 C723.49,404.58 723.05,404.87 721.29,406.65 C719.52,408.43 717.16,410.38 716.04,410.98 C714.92,411.58 714.00,412.73 714.00,413.54 C714.00,414.34 713.61,414.89 713.14,414.75 C711.60,414.30 702.95,421.11 703.64,422.23 C704.03,422.85 703.85,423.02 703.22,422.63 C702.61,422.26 697.24,425.45 691.28,429.73 C689.12,431.28 686.99,432.79 684.89,434.25 C707.90,418.00 730.85,397.62 739.54,385.48 C740.03,384.79 740.51,384.11 740.98,383.42 C738.02,388.04 734.92,392.26 732.16,395.25 C730.77,396.76 729.96,398.00 730.38,398.00 C730.79,398.00 735.33,393.73 740.47,388.51 ZM 770.38 510.82 C774.04,505.19 776.90,500.18 776.59,499.37 C776.28,498.56 776.42,498.14 776.90,498.44 C777.39,498.74 778.08,497.81 778.44,496.37 C778.93,494.44 778.57,493.25 777.09,491.87 C775.99,490.84 774.84,490.00 774.54,490.00 C773.61,490.00 770.52,486.40 770.17,484.92 C770.00,484.14 769.43,483.35 768.92,483.16 C768.41,482.98 768.22,482.45 768.51,481.98 C768.80,481.51 767.42,479.90 765.45,478.40 C763.48,476.89 761.01,473.98 759.96,471.92 C758.03,468.14 752.00,462.89 752.00,464.99 C752.00,465.61 751.55,465.84 751.00,465.50 C750.45,465.16 750.00,465.43 750.00,466.11 C750.00,466.78 749.72,467.05 749.38,466.71 C748.71,466.05 740.71,469.92 736.38,472.73 C738.88,470.75 744.87,467.07 750.44,464.12 C779.87,448.52 813.92,426.33 831.91,411.00 C836.10,407.42 840.39,403.83 841.43,403.00 C843.20,401.60 843.25,401.64 842.17,403.50 C837.23,412.04 791.58,480.03 770.38,510.82 ZM 557.23 401.00 C557.24,401.00 557.24,401.00 557.25,401.00 C557.52,401.00 558.99,402.91 560.53,405.25 C562.07,407.59 565.95,412.73 569.17,416.68 C574.39,423.09 575.33,423.81 578.00,423.47 C580.11,423.21 581.00,423.52 581.00,424.53 C581.00,425.32 582.14,426.25 583.52,426.60 C584.91,426.94 586.60,428.01 587.27,428.96 C587.95,429.91 590.19,431.25 592.26,431.93 C594.52,432.67 595.75,433.60 595.35,434.25 C594.92,434.95 595.27,435.11 596.34,434.70 C597.25,434.35 598.00,434.49 598.00,435.01 C598.00,435.53 599.30,435.69 600.88,435.37 C602.52,435.05 604.05,435.27 604.44,435.90 C604.81,436.50 605.99,437.00 607.06,437.00 C609.58,437.00 609.70,432.45 607.27,428.97 C606.32,427.61 605.64,426.39 605.77,426.25 C606.57,425.39 605.65,422.77 603.40,419.45 C601.97,417.34 600.09,413.34 599.21,410.56 C598.33,407.78 596.57,403.82 595.31,401.77 C594.04,399.72 593.00,397.56 593.00,396.97 C593.00,396.38 591.88,394.24 590.50,392.21 C587.82,388.27 587.29,386.44 589.15,387.60 C589.64,387.89 589.92,387.92 589.90,387.69 C591.27,390.06 592.65,392.50 594.04,395.00 C599.13,404.11 602.42,410.33 622.50,448.77 C627.32,457.99 631.68,465.59 632.39,465.98 C629.14,467.61 625.85,469.20 622.50,470.76 C614.25,474.60 606.08,478.06 604.35,478.43 C599.90,479.40 599.05,478.17 582.98,447.50 C579.53,440.90 574.96,432.42 572.85,428.66 C570.73,424.90 569.00,421.65 569.00,421.45 C569.00,421.24 566.28,416.44 562.95,410.79 C560.75,407.04 558.60,403.36 557.23,401.00 ZM 727.75 260.75 C727.61,260.05 728.27,259.63 729.25,259.79 C730.21,259.96 731.00,259.67 731.00,259.16 C731.00,257.70 725.66,257.06 724.00,258.32 C723.17,258.95 723.33,258.49 724.35,257.30 C726.23,255.08 725.76,252.50 723.62,253.32 C722.97,253.57 721.39,252.92 720.11,251.89 C718.83,250.85 718.33,250.00 719.01,250.00 C721.09,250.00 717.89,246.85 714.28,245.35 C709.93,243.53 705.49,243.65 703.50,245.65 C701.51,247.63 702.96,248.96 707.13,248.98 C709.99,249.00 712.55,251.30 711.53,252.95 C711.07,253.70 722.90,260.24 727.75,261.91 C727.89,261.96 727.89,261.44 727.75,260.75 ZM 675.63 539.66 C671.19,535.40 667.24,530.88 664.57,526.76 C663.58,525.25 662.43,524.23 662.00,524.50 C661.58,524.76 660.67,524.31 659.99,523.49 C659.31,522.67 658.16,522.00 657.44,522.00 C654.82,522.00 653.33,515.67 655.32,513.00 C655.93,512.17 656.07,511.81 655.61,512.19 C655.16,512.56 653.83,511.80 652.65,510.49 C651.47,509.18 649.15,507.90 647.50,507.65 C643.78,507.09 641.00,506.00 641.00,505.12 C641.00,501.89 647.40,498.00 648.40,500.61 C648.70,501.37 649.43,502.00 650.04,502.00 C650.65,502.00 650.44,501.29 649.57,500.43 C648.11,498.96 647.58,497.80 648.17,496.68 C648.81,498.17 651.13,502.52 653.86,507.34 C662.38,522.34 669.02,532.41 675.63,539.66 ZM 737.26 564.23 C739.61,561.93 741.88,559.47 744.09,556.86 C747.07,553.33 747.66,552.08 746.55,551.66 C745.64,551.31 745.29,551.58 745.60,552.39 C746.21,553.98 743.87,556.02 740.80,556.59 C731.39,558.30 723.56,559.11 716.74,558.98 C726.87,558.85 737.04,555.47 746.68,548.86 C748.98,547.29 751.12,546.00 751.43,546.00 C754.05,546.00 746.05,555.75 737.26,564.23 ZM 867.90 186.88 C866.29,187.27 864.75,187.68 863.43,188.08 C861.74,188.58 858.30,189.00 855.80,189.00 C851.74,189.00 851.18,189.27 850.76,191.46 C850.54,192.61 850.67,193.43 851.40,194.32 C850.55,193.62 849.73,192.89 848.92,192.11 C846.02,189.31 843.85,186.82 844.10,186.57 C844.35,186.32 846.57,186.58 849.03,187.15 C853.04,188.08 860.80,187.90 867.90,186.88 ZM 812.12 439.75 C812.18,439.06 812.18,438.16 812.12,437.75 C812.05,437.34 812.48,437.00 813.06,437.00 C813.64,437.00 813.86,436.58 813.55,436.08 C813.23,435.57 813.77,434.96 814.74,434.73 C816.41,434.33 816.40,434.27 814.70,433.53 C813.48,433.00 812.50,433.30 811.65,434.46 C810.96,435.41 809.74,436.09 808.95,435.97 C806.15,435.57 805.00,436.01 805.00,437.50 C805.00,438.33 805.87,439.00 806.94,439.00 C808.01,439.00 809.16,439.45 809.50,440.00 C810.37,441.40 811.98,441.25 812.12,439.75 ZM 824.26 276.33 C824.08,276.28 824.00,276.04 824.00,275.62 C824.00,274.66 823.55,274.16 823.00,274.50 C822.04,275.09 821.71,271.21 821.48,257.00 C821.44,254.62 821.19,251.89 820.87,250.16 C821.08,250.79 821.28,251.41 821.46,252.00 C822.35,255.02 823.35,261.89 823.69,267.26 ZM 827.52 421.25 C830.23,418.17 830.58,417.00 828.78,417.00 C827.16,417.00 822.90,422.02 823.58,423.13 C824.40,424.46 824.90,424.22 827.52,421.25 ZM 402.28 312.80 C401.58,313.47 401.57,313.98 402.03,314.54 C402.64,315.27 402.43,315.81 400.90,316.55 C397.18,317.86 394.31,319.09 393.35,319.85 C393.28,319.78 393.26,319.71 393.29,319.62 C393.71,318.37 397.37,315.72 402.28,312.80 ZM 731.17 426.33 C731.60,424.13 735.50,423.83 735.50,426.00 C735.50,426.83 734.45,427.65 733.16,427.83 C731.35,428.09 730.90,427.75 731.17,426.33 ZM 654.67 509.54 C654.67,508.74 654.07,507.86 653.33,507.57 C651.67,506.94 651.60,508.20 653.20,509.80 L 653.28 509.88 C654.01,510.61 654.35,510.96 654.52,510.88 C654.67,510.82 654.67,510.41 654.67,509.64 ZM 426.60 318.99 C434.63,319.65 440.63,321.25 448.80,324.52 C441.75,321.83 434.18,319.96 426.60,318.99 ZM 394.87 320.06 C394.99,320.00 395.10,319.95 395.22,319.88 C396.18,319.37 399.50,318.99 404.66,318.78 C403.50,318.92 402.35,319.08 401.22,319.27 C398.31,319.76 396.19,320.02 394.87,320.06 ZM 563.50 347.43 C548.61,328.44 533.57,315.69 516.31,306.90 C533.81,315.82 548.53,328.17 563.50,347.43 ZM 751.83 330.78 C750.95,328.70 749.87,326.70 748.58,324.78 C746.27,321.32 742.16,316.81 739.44,314.74 C745.14,319.08 749.30,324.55 751.83,330.78 ZM 725.50 259.00 C725.84,258.45 726.32,258.00 726.56,258.00 C726.80,258.00 727.00,258.45 727.00,259.00 C727.00,259.55 726.52,260.00 725.94,260.00 C725.36,260.00 725.16,259.55 725.50,259.00 ZM 678.59 438.60 C668.77,445.28 659.57,451.07 650.41,456.32 C659.07,451.17 669.30,444.80 677.50,439.33 C677.86,439.09 678.23,438.85 678.59,438.60 ZM 725.52 486.71 C721.88,492.07 717.36,498.76 712.61,505.86 C710.46,509.07 708.52,511.98 706.77,514.62 C712.76,505.37 719.80,494.86 725.52,486.71 ZM 434.86 298.85 C443.66,296.50 450.47,295.71 462.00,295.30 C452.14,295.65 443.27,296.78 434.86,298.85 ZM 749.48 534.29 C752.40,532.24 755.23,529.99 757.86,527.58 C759.02,526.51 760.77,524.40 762.73,521.79 C761.18,523.97 760.16,525.35 759.79,525.75 C757.15,528.60 753.51,531.56 749.48,534.29 ZM 728.12 459.18 C704.33,471.56 679.76,482.80 655.25,492.46 C679.75,482.81 704.53,471.43 728.12,459.18 ZM 718.54 578.56 C723.47,575.73 728.17,572.38 732.65,568.50 C730.91,570.03 729.21,571.43 727.62,572.63 C724.74,574.79 721.70,576.77 718.54,578.56 ZM 751.17 364.14 C752.85,359.55 753.95,355.08 754.44,350.78 C754.10,353.95 753.45,357.20 752.45,360.49 C752.12,361.61 751.68,362.84 751.17,364.14 ZM 704.43 557.51 C702.02,556.93 699.72,556.19 697.50,555.27 C696.43,554.83 695.30,554.29 694.13,553.67 C697.52,555.34 700.96,556.62 704.43,557.51 ZM 717.52 267.00 C710.48,265.12 701.56,263.12 692.13,261.38 C702.09,263.22 710.44,265.06 717.52,267.00 ZM 987.50 183.24 C986.03,182.36 984.46,181.48 983.00,180.76 C980.03,179.29 978.20,178.48 976.00,178.04 C978.22,178.48 980.09,179.29 983.12,180.76 C984.46,181.41 985.99,182.29 987.50,183.24 ZM 471.99 338.31 C481.14,345.50 489.97,354.47 496.89,363.88 C490.04,354.57 481.13,345.54 471.99,338.31 ZM 874.81 203.78 L 878.98 204.27 L 878.83 204.42 ZM 817.27 241.43 C815.75,238.48 814.24,236.00 813.79,236.00 C814.36,236.00 815.76,238.32 817.27,241.43 ZM 741.93 198.06 C742.03,198.12 742.10,198.17 742.13,198.21 C742.37,198.59 743.04,198.81 743.87,198.81 C742.74,198.90 742.00,198.69 742.00,198.25 C742.00,198.18 741.97,198.12 741.93,198.06 ZM 579.77 163.18 C575.29,160.54 569.73,156.95 565.63,154.05 C569.71,156.92 575.15,160.41 579.77,163.18 ZM 882.04 184.52 C882.57,184.85 883.00,184.67 883.00,184.13 C883.00,184.67 882.59,184.86 882.08,184.55 C881.76,184.35 879.99,184.52 877.56,184.91 C879.83,184.46 881.65,184.28 882.04,184.52 ZM 561.89 151.31 C557.96,148.37 554.80,146.09 554.52,146.00 C554.52,146.00 554.53,146.00 554.54,146.00 C554.74,146.00 557.97,148.33 561.89,151.31 ZM 745.80 198.53 C747.04,198.32 748.21,198.52 748.52,199.04 C748.88,199.61 750.03,199.81 751.08,199.47 C750.03,199.81 748.89,199.63 748.55,199.07 C748.26,198.61 747.11,198.41 745.80,198.53 Z" fill="rgb(13,152,200)"/>
</g>
</svg>


